# xmcd
#
# Track frame offsets:
#	150
#	15486
#	33661
#	49059
#	65261
#	81329
#	95483
#	113850
#	125665
#	141744
#	151070
#	169955
#	185551
#	196358
#	209012
#	225587
#	240895
#	255405
#	268043
#	288268
#
# Disc length: 3944 seconds
# Revision: 0
# Processed by: cddbd v1.5.2PL0 Copyright (c) Steve Scherf et al.
# Submitted via: dBpowerAMP V12.0
#
DISCID=200f6614
DTITLE=Raul Ellwanger - Ouro e Barro
DYEAR=2010
DGENRE=Brazil
TTITLE0=Bonito
TTITLE1=Por te querer
TTITLE2=Dorme, Porto Alegre
TTITLE3=Cantora d'Alfama
TTITLE4=Passarim lindo
TTITLE5=Tô querendo
TTITLE6=Ouro e barro
TTITLE7=Foi só por amor
TTITLE8=Foi o vento do mar
TTITLE9=Cantiga para não morrer
TTITLE10=Niemeyer
TTITLE11=Nos lábios do mar
TTITLE12=Cambacica
TTITLE13=O Mapa
TTITLE14=Tsunamis e canções
TTITLE15=Maneiras
TTITLE16=Doce amada
TTITLE17=Amanhã de manhã
TTITLE18=Novelo
TTITLE19=Amanheceu
EXTD=
EXTT0=
EXTT1=
EXTT2=
EXTT3=
EXTT4=
EXTT5=
EXTT6=
EXTT7=
EXTT8=
EXTT9=
EXTT10=
EXTT11=
EXTT12=
EXTT13=
EXTT14=
EXTT15=
EXTT16=
EXTT17=
EXTT18=
EXTT19=
PLAYORDER=
